# Blender v2.93.5 OBJ File: 'Beveled Cube Tiles.blend'
# www.blender.org
mtllib Beveled Cube Tiles.mtl
o Middle_Corner_Cube.012
v 0.750000 2.000000 1.000000
v -1.000000 2.000000 -0.750000
v -1.000000 2.000000 1.000000
v 1.005555 2.000000 1.000000
v -1.000000 2.000000 -1.000000
v 0.750000 2.000000 -0.750000
v 1.000000 1.695453 -1.000000
v 0.926777 1.926777 -1.000000
v 0.952924 1.893291 -1.000161
v 0.978467 1.847234 -1.000018
v 0.823495 1.990561 -0.814055
v 0.908631 1.965668 -0.874299
v 1.000000 1.926777 -0.926777
v 0.814055 1.990560 -0.823495
v 0.872233 1.972132 -0.873521
v 0.934696 1.951352 -0.916276
v 1.000000 1.892480 -0.952619
v 0.874299 1.965668 -0.908631
v 0.915656 1.950202 -0.935514
v 0.957893 1.933462 -0.958037
v 1.000000 1.843445 -0.978366
v 1.000000 2.000000 -0.750000
v 1.000000 1.966506 -0.875000
v 1.000000 1.991481 -0.814705
v 0.750000 2.000000 -1.000000
v 0.814705 1.991481 -1.000000
v 0.875000 1.966506 -1.000000
v 0.926777 1.923345 -1.000000
vt 0.486255 0.569452
vt 0.627084 0.549518
vt 0.626947 0.710446
vt 0.466019 0.710238
vt 0.486272 0.549336
vt 0.486272 0.549336
vt 0.627084 0.549518
vt 0.466139 0.569426
vt 0.466143 0.564272
vt 0.466147 0.559487
vt 0.466144 0.563512
vt 0.466147 0.559424
vt 0.466150 0.556047
vt 0.466156 0.549310
vt 0.466156 0.549310
vt 0.466151 0.554499
vt 0.466150 0.556662
vt 0.466153 0.552687
vt 0.466156 0.549310
vt 0.466156 0.549304
vt 0.466156 0.549310
vt 0.466156 0.549309
vt 0.466156 0.549310
vt 0.466147 0.559368
vt 0.466143 0.564220
vt 0.466139 0.569426
vt 0.466156 0.549310
vt 0.476214 0.549323
vt 0.476270 0.549323
vt 0.481065 0.549329
vt 0.481118 0.549329
vt 0.466019 0.710238
vn 0.0182 0.9997 -0.0182
vn 0.0000 1.0000 0.0000
vn 0.0699 0.9975 0.0012
vn 0.0579 0.9861 -0.1553
vn 0.1827 0.9667 -0.1792
vn 0.1555 0.9861 -0.0576
vn 0.0872 0.9375 -0.3369
vn 0.2543 0.8933 -0.3705
vn 0.1581 0.8255 -0.5418
vn 0.5734 0.6952 -0.4334
vn 0.3527 0.8954 -0.2716
vn 0.3414 0.9358 -0.0876
vn 0.5198 0.6720 -0.5275
vn 0.7126 0.3072 -0.6307
vn 0.4234 0.7074 -0.5658
vn 0.5632 0.8173 -0.1216
vn 0.6682 0.3131 -0.6748
vn 0.7088 0.2422 -0.6625
vn -0.0100 0.8647 -0.5022
vn -0.0052 0.9640 -0.2656
vn -0.0012 0.9976 -0.0698
vn 0.6087 0.7932 -0.0178
vn 0.5022 0.8647 -0.0050
vn 0.2656 0.9640 0.0052
usemtl Material.009
s 1
f 6/1/1 2/2/2 3/3/2 1/4/2
f 2/2/2 6/5/1 25/6/3 5/7/2
f 6/8/1 11/9/4 15/10/5 14/11/6
f 11/9/4 12/12/7 16/13/8 15/10/5
f 12/12/7 13/14/9 17/15/10 16/13/8
f 14/11/6 15/10/5 19/16/11 18/17/12
f 15/10/5 16/13/8 20/18/13 19/16/11
f 16/13/8 17/15/10 21/19/14 20/18/13
f 18/17/12 19/16/11 9/20/15 8/21/16
f 19/16/11 20/18/13 10/22/17 9/20/15
f 20/18/13 21/19/14 7/23/18 10/22/17
f 13/14/9 12/12/7 23/24/19
f 23/24/19 12/12/7 11/9/4 24/25/20
f 24/25/20 11/9/4 6/8/1 22/26/21
f 8/21/16 28/27/22 27/28/23 18/29/12
f 18/29/12 27/28/23 26/30/24 14/31/6
f 14/31/6 26/30/24 25/6/3 6/5/1
f 6/8/1 1/4/2 4/32/2 22/26/21
