# Blender v2.93.5 OBJ File: 'Beveled Cube Tiles.blend'
# www.blender.org
mtllib Corner Beveled Cube.mtl
o Corner_Cube_Cube.005
v 0.750000 1.750000 -1.000000
v 0.750000 2.000000 -0.750000
v 1.000000 1.750000 -0.750000
v 0.750000 1.814682 -0.991488
v 0.750000 1.875020 -0.966495
v 0.750000 1.926777 -0.926777
v 0.814682 1.750000 -0.991488
v 0.816718 1.817268 -0.981352
v 0.815629 1.875404 -0.956075
v 0.814287 1.920752 -0.920912
v 0.875020 1.750000 -0.966495
v 0.875471 1.816006 -0.955913
v 0.869084 1.869142 -0.934727
v 0.863846 1.907375 -0.907392
v 0.894338 1.894338 -0.894338
v 0.814682 1.991488 -0.750000
v 0.875020 1.966495 -0.750000
v 0.926777 1.926777 -0.750000
v 0.750000 1.991488 -0.814682
v 0.817268 1.981352 -0.816718
v 0.875404 1.956075 -0.815629
v 0.920752 1.920912 -0.814287
v 0.750000 1.966495 -0.875020
v 0.816006 1.955913 -0.875471
v 0.869142 1.934727 -0.869084
v 0.907375 1.907392 -0.863846
v 0.991488 1.750000 -0.814682
v 0.966495 1.750000 -0.875020
v 0.926777 1.750000 -0.926777
v 0.991488 1.814682 -0.750000
v 0.981352 1.816718 -0.817268
v 0.956075 1.815629 -0.875404
v 0.920912 1.814287 -0.920752
v 0.966495 1.875020 -0.750000
v 0.955913 1.875471 -0.816006
v 0.934727 1.869084 -0.869142
v 0.907392 1.863846 -0.907375
v 0.750000 0.000000 -0.750000
v 0.750000 0.250000 -1.000000
v 1.000000 0.250000 -0.750000
v 0.750000 0.008512 -0.814682
v 0.750000 0.033505 -0.875020
v 0.750000 0.073223 -0.926777
v 0.814682 0.008512 -0.750000
v 0.816718 0.018648 -0.817268
v 0.815629 0.043925 -0.875404
v 0.814287 0.079088 -0.920752
v 0.875020 0.033505 -0.750000
v 0.875471 0.044087 -0.816006
v 0.869084 0.065273 -0.869142
v 0.863846 0.092608 -0.907375
v 0.894338 0.105662 -0.894338
v 0.814682 0.250000 -0.991488
v 0.875020 0.250000 -0.966495
v 0.926777 0.250000 -0.926777
v 0.750000 0.185318 -0.991488
v 0.817268 0.183282 -0.981352
v 0.875404 0.184371 -0.956075
v 0.920752 0.185713 -0.920912
v 0.750000 0.124980 -0.966495
v 0.816006 0.124529 -0.955913
v 0.869142 0.130916 -0.934727
v 0.907375 0.136154 -0.907392
v 0.991488 0.185318 -0.750000
v 0.966495 0.124980 -0.750000
v 0.926777 0.073223 -0.750000
v 0.991488 0.250000 -0.814682
v 0.981352 0.182732 -0.816718
v 0.956075 0.124596 -0.815629
v 0.920912 0.079248 -0.814287
v 0.966495 0.250000 -0.875020
v 0.955913 0.183994 -0.875471
v 0.934727 0.130858 -0.869084
v 0.907392 0.092625 -0.863846
v 1.000000 1.750000 1.000000
v 0.750000 2.000000 1.000000
v 0.991488 1.814682 1.000000
v 0.966495 1.875020 1.000000
v 0.926777 1.926777 1.000000
v 0.814682 1.991488 1.000000
v 0.875020 1.966495 1.000000
v 1.000000 0.250000 1.000000
v 0.750000 0.000000 1.000000
v 0.991488 0.185318 1.000000
v 0.966495 0.124980 1.000000
v 0.814682 0.008512 1.000000
v 0.875020 0.033505 1.000000
v 0.926777 0.073223 1.000000
v -1.000000 1.750000 -1.000000
v -1.000000 2.000000 -0.750000
v -1.000000 1.814682 -0.991488
v -1.000000 1.875020 -0.966495
v -1.000000 1.991488 -0.814682
v -1.000000 1.966495 -0.875020
v -1.000000 1.926777 -0.926777
v -1.000000 0.250000 -1.000000
v -1.000000 0.000000 -0.750000
v -1.000000 0.185318 -0.991488
v -1.000000 0.124980 -0.966495
v -1.000000 0.073223 -0.926777
v -1.000000 0.008512 -0.814682
v -1.000000 0.033505 -0.875020
v -1.000000 2.000000 1.000000
v -1.000000 0.000000 1.000000
vt 0.466156 0.129391
vt 0.627084 0.129600
vt 0.626947 0.290527
vt 0.466019 0.290319
vt 0.466156 0.549310
vt 0.627084 0.549518
vt 0.626947 0.710446
vt 0.466019 0.710238
vt 0.250328 0.478590
vt 0.086298 0.478589
vt 0.086298 0.314559
vt 0.250328 0.314560
vt 0.460988 0.506216
vt 0.462367 0.514125
vt 0.454493 0.516729
vt 0.451998 0.508101
vt 0.463740 0.521626
vt 0.456577 0.523831
vt 0.464849 0.528785
vt 0.458034 0.529914
vt 0.447315 0.520272
vt 0.443114 0.512077
vt 0.450577 0.526302
vt 0.452549 0.531048
vt 0.441612 0.524741
vt 0.435121 0.518189
vt 0.446036 0.529165
vt 0.448827 0.531964
vt 0.459381 0.549183
vt 0.459096 0.542304
vt 0.466027 0.542529
vt 0.452567 0.548768
vt 0.452663 0.541914
vt 0.445611 0.548006
vt 0.446776 0.541178
vt 0.458723 0.535808
vt 0.465609 0.535724
vt 0.452839 0.535991
vt 0.447903 0.535686
vt 0.422926 0.544048
vt 0.424888 0.535025
vt 0.433500 0.537497
vt 0.430893 0.545485
vt 0.428946 0.526145
vt 0.437079 0.530392
vt 0.440685 0.539663
vt 0.438427 0.546886
vt 0.443153 0.533688
vt 0.627212 0.122823
vt 0.634092 0.122539
vt 0.633866 0.129471
vt 0.627628 0.116009
vt 0.634482 0.116105
vt 0.628391 0.109053
vt 0.635218 0.110218
vt 0.640588 0.122165
vt 0.640672 0.129051
vt 0.640405 0.116281
vt 0.640710 0.111345
vt 0.646482 0.121476
vt 0.647612 0.128291
vt 0.645347 0.115991
vt 0.644431 0.112269
vt 0.632354 0.086370
vt 0.641373 0.088335
vt 0.638901 0.096945
vt 0.630915 0.094336
vt 0.650251 0.092393
vt 0.646004 0.100523
vt 0.658203 0.098566
vt 0.651653 0.105056
vt 0.636734 0.104128
vt 0.629512 0.101869
vt 0.642707 0.106596
vt 0.647230 0.109478
vt 0.670177 0.124424
vt 0.662269 0.125805
vt 0.659665 0.117934
vt 0.668290 0.115437
vt 0.654770 0.127180
vt 0.652564 0.120018
vt 0.656122 0.110757
vt 0.664314 0.106557
vt 0.650093 0.114019
vt 0.466028 0.122611
vt 0.465609 0.115805
vt 0.464849 0.108866
vt 0.463740 0.101707
vt 0.462367 0.094207
vt 0.460988 0.086298
vt 0.250328 0.485724
vt 0.086298 0.485723
vt 0.250328 0.492866
vt 0.086298 0.492865
vt 0.250328 0.500000
vt 0.086298 0.500000
vt 0.250328 0.507134
vt 0.086298 0.507134
vt 0.250328 0.514276
vt 0.086298 0.514276
vt 0.250328 0.521410
vt 0.086298 0.521410
vt 0.459237 0.710366
vt 0.452431 0.710786
vt 0.445492 0.711547
vt 0.438333 0.712657
vt 0.430834 0.714032
vt 0.422926 0.715413
vt 0.627211 0.542742
vt 0.627628 0.535928
vt 0.628391 0.528972
vt 0.629512 0.521787
vt 0.630915 0.514255
vt 0.632353 0.506289
vt 0.633722 0.290654
vt 0.640536 0.291070
vt 0.647492 0.291831
vt 0.654676 0.292952
vt 0.662210 0.294353
vt 0.670177 0.295789
vt 0.250328 0.685440
vt 0.086298 0.685440
vn 0.0000 -0.9978 -0.0654
vn 0.0669 -0.9955 -0.0669
vn 0.0654 -0.9978 0.0000
vn 0.0000 -1.0000 0.0000
vn 0.0669 0.9955 -0.0669
vn 0.0000 0.9978 -0.0654
vn 0.0000 1.0000 0.0000
vn 0.0654 0.9978 0.0000
vn 0.9955 -0.0669 -0.0669
vn 0.9955 0.0669 -0.0669
vn 0.9978 0.0654 0.0000
vn 0.9978 -0.0654 0.0000
vn 0.0669 0.0669 -0.9955
vn 0.0678 0.2592 -0.9634
vn 0.2622 0.2634 -0.9283
vn 0.2594 0.0681 -0.9633
vn 0.0648 0.4989 -0.8642
vn 0.2502 0.4951 -0.8320
vn 0.0628 0.7058 -0.7056
vn 0.2410 0.6861 -0.6865
vn 0.4950 0.2510 -0.8318
vn 0.4987 0.0654 -0.8643
vn 0.4635 0.4637 -0.7551
vn 0.4392 0.6352 -0.6354
vn 0.6865 0.2410 -0.6861
vn 0.7056 0.0628 -0.7058
vn 0.6353 0.4392 -0.6352
vn 0.5773 0.5773 -0.5773
vn 0.2592 0.9634 -0.0678
vn 0.2634 0.9283 -0.2622
vn 0.0681 0.9633 -0.2594
vn 0.4989 0.8642 -0.0648
vn 0.4951 0.8320 -0.2502
vn 0.7058 0.7056 -0.0628
vn 0.6861 0.6865 -0.2410
vn 0.2510 0.8318 -0.4950
vn 0.0654 0.8643 -0.4987
vn 0.4637 0.7551 -0.4635
vn 0.6352 0.6353 -0.4392
vn 0.9634 0.0678 -0.2592
vn 0.9283 0.2622 -0.2634
vn 0.9633 0.2594 -0.0681
vn 0.8642 0.0648 -0.4989
vn 0.8320 0.2502 -0.4951
vn 0.8318 0.4950 -0.2510
vn 0.8643 0.4987 -0.0654
vn 0.7551 0.4635 -0.4637
vn 0.0678 -0.9634 -0.2592
vn 0.2622 -0.9283 -0.2634
vn 0.2594 -0.9633 -0.0681
vn 0.0648 -0.8642 -0.4989
vn 0.2502 -0.8320 -0.4951
vn 0.0628 -0.7056 -0.7058
vn 0.2410 -0.6865 -0.6861
vn 0.4950 -0.8318 -0.2510
vn 0.4987 -0.8643 -0.0654
vn 0.4635 -0.7551 -0.4637
vn 0.4392 -0.6353 -0.6352
vn 0.6865 -0.6861 -0.2410
vn 0.7056 -0.7058 -0.0628
vn 0.6353 -0.6352 -0.4392
vn 0.5773 -0.5773 -0.5773
vn 0.0669 -0.0669 -0.9955
vn 0.2592 -0.0678 -0.9634
vn 0.2634 -0.2622 -0.9283
vn 0.0681 -0.2594 -0.9633
vn 0.4989 -0.0648 -0.8642
vn 0.4951 -0.2502 -0.8320
vn 0.7058 -0.0628 -0.7056
vn 0.6861 -0.2410 -0.6865
vn 0.2510 -0.4950 -0.8318
vn 0.0654 -0.4987 -0.8643
vn 0.4637 -0.4635 -0.7551
vn 0.6352 -0.4392 -0.6353
vn 0.9634 -0.2592 -0.0678
vn 0.9283 -0.2634 -0.2622
vn 0.9633 -0.0681 -0.2594
vn 0.8642 -0.4989 -0.0648
vn 0.8320 -0.4951 -0.2502
vn 0.8318 -0.2510 -0.4950
vn 0.8643 -0.0654 -0.4987
vn 0.7551 -0.4637 -0.4635
vn 0.0000 -0.9659 -0.2588
vn 0.0000 -0.8660 -0.5000
vn 0.0000 -0.7071 -0.7071
vn 0.0000 -0.5000 -0.8660
vn 0.0000 -0.2588 -0.9659
vn 0.0000 -0.0654 -0.9978
vn 0.2588 0.9659 0.0000
vn 0.5000 0.8660 0.0000
vn 0.7071 0.7071 0.0000
vn 0.8660 0.5000 0.0000
vn 0.9659 0.2588 0.0000
vn 0.0000 0.9659 -0.2588
vn 0.0000 0.8660 -0.5000
vn 0.0000 0.7071 -0.7071
vn 0.0000 0.5000 -0.8660
vn 0.0000 0.2588 -0.9659
vn 0.0000 0.0654 -0.9978
vn 0.2588 -0.9659 0.0000
vn 0.5000 -0.8660 0.0000
vn 0.7071 -0.7071 0.0000
vn 0.8660 -0.5000 0.0000
vn 0.9659 -0.2588 0.0000
usemtl Material.005
s 1
f 97/1/1 38/2/2 83/3/3 104/4/4
f 2/5/5 90/6/6 103/7/7 76/8/8
f 40/9/9 3/10/10 75/11/11 82/12/12
f 1/13/13 4/14/14 8/15/15 7/16/16
f 4/14/14 5/17/17 9/18/18 8/15/15
f 5/17/17 6/19/19 10/20/20 9/18/18
f 7/16/16 8/15/15 12/21/21 11/22/22
f 8/15/15 9/18/18 13/23/23 12/21/21
f 9/18/18 10/20/20 14/24/24 13/23/23
f 11/22/22 12/21/21 33/25/25 29/26/26
f 12/21/21 13/23/23 37/27/27 33/25/25
f 13/23/23 14/24/24 15/28/28 37/27/27
f 2/5/5 16/29/29 20/30/30 19/31/31
f 16/29/29 17/32/32 21/33/33 20/30/30
f 17/32/32 18/34/34 22/35/35 21/33/33
f 19/31/31 20/30/30 24/36/36 23/37/37
f 20/30/30 21/33/33 25/38/38 24/36/36
f 21/33/33 22/35/35 26/39/39 25/38/38
f 23/37/37 24/36/36 10/20/20 6/19/19
f 24/36/36 25/38/38 14/24/24 10/20/20
f 25/38/38 26/39/39 15/28/28 14/24/24
f 3/40/10 27/41/40 31/42/41 30/43/42
f 27/41/40 28/44/43 32/45/44 31/42/41
f 28/44/43 29/26/26 33/25/25 32/45/44
f 30/43/42 31/42/41 35/46/45 34/47/46
f 31/42/41 32/45/44 36/48/47 35/46/45
f 32/45/44 33/25/25 37/27/27 36/48/47
f 34/47/46 35/46/45 22/35/35 18/34/34
f 35/46/45 36/48/47 26/39/39 22/35/35
f 36/48/47 37/27/27 15/28/28 26/39/39
f 38/2/2 41/49/48 45/50/49 44/51/50
f 41/49/48 42/52/51 46/53/52 45/50/49
f 42/52/51 43/54/53 47/55/54 46/53/52
f 44/51/50 45/50/49 49/56/55 48/57/56
f 45/50/49 46/53/52 50/58/57 49/56/55
f 46/53/52 47/55/54 51/59/58 50/58/57
f 48/57/56 49/56/55 70/60/59 66/61/60
f 49/56/55 50/58/57 74/62/61 70/60/59
f 50/58/57 51/59/58 52/63/62 74/62/61
f 39/64/63 53/65/64 57/66/65 56/67/66
f 53/65/64 54/68/67 58/69/68 57/66/65
f 54/68/67 55/70/69 59/71/70 58/69/68
f 56/67/66 57/66/65 61/72/71 60/73/72
f 57/66/65 58/69/68 62/74/73 61/72/71
f 58/69/68 59/71/70 63/75/74 62/74/73
f 60/73/72 61/72/71 47/55/54 43/54/53
f 61/72/71 62/74/73 51/59/58 47/55/54
f 62/74/73 63/75/74 52/63/62 51/59/58
f 40/76/9 64/77/75 68/78/76 67/79/77
f 64/77/75 65/80/78 69/81/79 68/78/76
f 65/80/78 66/61/60 70/60/59 69/81/79
f 67/79/77 68/78/76 72/82/80 71/83/81
f 68/78/76 69/81/79 73/84/82 72/82/80
f 69/81/79 70/60/59 74/62/61 73/84/82
f 71/83/81 72/82/80 59/71/70 55/70/69
f 72/82/80 73/84/82 63/75/74 59/71/70
f 73/84/82 74/62/61 52/63/62 63/75/74
f 38/2/2 97/1/1 101/85/83 41/49/48
f 41/49/48 101/85/83 102/86/84 42/52/51
f 42/52/51 102/86/84 100/87/85 43/54/53
f 43/54/53 100/87/85 99/88/86 60/73/72
f 60/73/72 99/88/86 98/89/87 56/67/66
f 56/67/66 98/89/87 96/90/88 39/64/63
f 3/10/10 40/9/9 67/91/77 27/92/40
f 27/92/40 67/91/77 71/93/81 28/94/43
f 28/94/43 71/93/81 55/95/69 29/96/26
f 29/96/26 55/95/69 54/97/67 11/98/22
f 11/98/22 54/97/67 53/99/64 7/100/16
f 7/100/16 53/99/64 39/101/63 1/102/13
f 2/5/5 76/8/8 80/103/89 16/29/29
f 16/29/29 80/103/89 81/104/90 17/32/32
f 17/32/32 81/104/90 79/105/91 18/34/34
f 18/34/34 79/105/91 78/106/92 34/47/46
f 34/47/46 78/106/92 77/107/93 30/43/42
f 30/43/42 77/107/93 75/108/11 3/40/10
f 90/6/6 2/5/5 19/31/31 93/109/94
f 93/109/94 19/31/31 23/37/37 94/110/95
f 94/110/95 23/37/37 6/19/19 95/111/96
f 95/111/96 6/19/19 5/17/17 92/112/97
f 92/112/97 5/17/17 4/14/14 91/113/98
f 91/113/98 4/14/14 1/13/13 89/114/99
f 83/3/3 38/2/2 44/51/50 86/115/100
f 86/115/100 44/51/50 48/57/56 87/116/101
f 87/116/101 48/57/56 66/61/60 88/117/102
f 88/117/102 66/61/60 65/80/78 85/118/103
f 85/118/103 65/80/78 64/77/75 84/119/104
f 84/119/104 64/77/75 40/76/9 82/120/12
f 96/121/88 89/122/99 1/102/13 39/101/63
