# Blender v2.93.5 OBJ File: 'Beveled Cube Tiles.blend'
# www.blender.org
mtllib Folded Corner Beveled Cube.mtl
o Corner_Cube.002_Cube.003
v 0.750000 1.750000 -1.000000
v 0.750000 2.000000 -0.750000
v 1.000000 1.750000 -0.750000
v 0.750000 1.814682 -0.991488
v 0.750000 1.875020 -0.966495
v 0.750000 1.926777 -0.926777
v 0.814682 1.750000 -0.991488
v 0.816718 1.817268 -0.981352
v 0.815629 1.875404 -0.956075
v 0.814287 1.920752 -0.920912
v 0.875020 1.750000 -0.966495
v 0.875471 1.816006 -0.955913
v 0.869084 1.869142 -0.934727
v 0.863846 1.907375 -0.907392
v 0.894338 1.894338 -0.894338
v 0.814682 1.991488 -0.750000
v 0.875020 1.966495 -0.750000
v 0.926777 1.926777 -0.750000
v 0.750000 1.991488 -0.814682
v 0.817268 1.981352 -0.816718
v 0.875404 1.956075 -0.815629
v 0.920752 1.920912 -0.814287
v 0.750000 1.966495 -0.875020
v 0.816006 1.955913 -0.875471
v 0.869142 1.934727 -0.869084
v 0.907375 1.907392 -0.863846
v 0.991488 1.750000 -0.814682
v 0.966495 1.750000 -0.875020
v 0.926777 1.750000 -0.926777
v 0.991488 1.814682 -0.750000
v 0.981352 1.816718 -0.817268
v 0.956075 1.815629 -0.875404
v 0.920912 1.814287 -0.920752
v 0.966495 1.875020 -0.750000
v 0.955913 1.875471 -0.816006
v 0.934727 1.869084 -0.869142
v 0.907392 1.863846 -0.907375
v 0.750000 0.000000 -0.750000
v 0.750000 0.250000 -1.000000
v 1.000000 0.250000 -0.750000
v 0.750000 0.008512 -0.814682
v 0.750000 0.033505 -0.875020
v 0.750000 0.073223 -0.926777
v 0.814682 0.008512 -0.750000
v 0.816718 0.018648 -0.817268
v 0.815629 0.043925 -0.875404
v 0.814287 0.079088 -0.920752
v 0.875020 0.033505 -0.750000
v 0.875471 0.044087 -0.816006
v 0.869084 0.065273 -0.869142
v 0.863846 0.092608 -0.907375
v 0.894338 0.105662 -0.894338
v 0.814682 0.250000 -0.991488
v 0.875020 0.250000 -0.966495
v 0.926777 0.250000 -0.926777
v 0.750000 0.185318 -0.991488
v 0.817268 0.183282 -0.981352
v 0.875404 0.184371 -0.956075
v 0.920752 0.185713 -0.920912
v 0.750000 0.124980 -0.966495
v 0.816006 0.124529 -0.955913
v 0.869142 0.130916 -0.934727
v 0.907375 0.136154 -0.907392
v 0.991488 0.185318 -0.750000
v 0.966495 0.124980 -0.750000
v 0.926777 0.073223 -0.750000
v 0.991488 0.250000 -0.814682
v 0.981352 0.182732 -0.816718
v 0.956075 0.124596 -0.815629
v 0.920912 0.079248 -0.814287
v 0.966495 0.250000 -0.875020
v 0.955913 0.183994 -0.875471
v 0.934727 0.130858 -0.869084
v 0.907392 0.092625 -0.863846
v 1.000000 1.750000 1.000000
v 0.750000 2.000000 1.000000
v 0.991488 1.814682 1.000000
v 0.966495 1.875020 1.000000
v 0.926777 1.926777 1.000000
v 0.814682 1.991488 1.000000
v 0.875020 1.966495 1.000000
v 1.000000 0.250000 1.000000
v 0.750000 0.000000 1.000000
v 0.991488 0.185318 1.000000
v 0.966495 0.124980 1.000000
v 0.814682 0.008512 1.000000
v 0.875020 0.033505 1.000000
v 0.926777 0.073223 1.000000
v -1.000000 1.750000 -1.000000
v -1.000000 2.000000 -0.750000
v -1.000000 1.814682 -0.991488
v -1.000000 1.875020 -0.966495
v -1.000000 1.991488 -0.814682
v -1.000000 1.966495 -0.875020
v -1.000000 1.926777 -0.926777
v -1.000000 0.250000 -1.000000
v -1.000000 0.000000 -0.750000
v -1.000000 0.185318 -0.991488
v -1.000000 0.124980 -0.966495
v -1.000000 0.073223 -0.926777
v -1.000000 0.008512 -0.814682
v -1.000000 0.033505 -0.875020
v -1.000000 0.000000 0.750000
v -1.000000 0.000000 1.000000
v -0.750000 0.000000 -0.750000
v -0.750000 0.008512 -0.814682
v -0.750000 0.033505 -0.875020
v -0.750000 0.073223 -0.926777
v -0.750000 0.124980 -0.966495
v -0.750000 0.185318 -0.991488
v -0.750000 0.250000 -1.000000
v -0.750000 0.000000 1.000000
v -0.750000 2.000000 -0.750000
v -0.750000 1.991488 -0.814682
v -0.750000 1.966495 -0.875020
v -0.750000 1.926777 -0.926777
v -0.750000 1.875020 -0.966495
v -0.750000 1.814682 -0.991488
v -0.750000 1.750000 -1.000000
v 0.750000 2.000000 0.750000
v 0.814682 1.991488 0.750000
v 0.875020 1.966495 0.750000
v 0.926777 1.926777 0.750000
v 0.966495 1.875020 0.750000
v 0.991488 1.814682 0.750000
v 1.000000 1.750000 0.750000
v 0.750000 0.000000 0.750000
v 0.814682 0.008512 0.750000
v 0.875020 0.033505 0.750000
v 0.926777 0.073223 0.750000
v 0.966495 0.124980 0.750000
v 0.991488 0.185318 0.750000
v 1.000000 0.250000 0.750000
v -0.750000 2.000000 0.750000
v -0.750000 0.000000 0.750000
v -0.750000 2.000000 -0.750000
v 0.750000 2.000000 0.750000
v -1.005555 2.000000 -0.750000
v 0.750000 2.000000 1.000000
v -0.750000 2.000000 0.750000
v -1.000000 1.695453 1.000000
v -0.926777 1.926777 1.000000
v -0.952924 1.893291 1.000161
v -0.978467 1.847234 1.000018
v -0.823495 1.990561 0.814055
v -0.908631 1.965668 0.874299
v -1.000000 1.926777 0.926777
v -0.814055 1.990560 0.823495
v -0.872233 1.972132 0.873521
v -0.934696 1.951352 0.916276
v -1.000000 1.892480 0.952619
v -0.874299 1.965668 0.908631
v -0.915656 1.950202 0.935514
v -0.957893 1.933462 0.958037
v -1.000000 1.843445 0.978366
v -1.000000 2.000000 0.750000
v -1.000000 1.966506 0.875000
v -1.000000 1.991481 0.814705
v -0.750000 2.000000 1.000000
v -0.814705 1.991481 1.000000
v -0.875000 1.966506 1.000000
v -0.926777 1.923345 1.000000
vt 0.490179 0.266211
vt 0.626968 0.266388
vt 0.626947 0.290527
vt 0.490158 0.290350
vt 0.466156 0.129391
vt 0.490295 0.129423
vt 0.466040 0.266180
vt 0.250328 0.339164
vt 0.086298 0.339164
vt 0.086298 0.314559
vt 0.250328 0.314560
vt 0.460988 0.506216
vt 0.462367 0.514125
vt 0.454493 0.516729
vt 0.451998 0.508101
vt 0.463740 0.521626
vt 0.456577 0.523831
vt 0.464849 0.528785
vt 0.458034 0.529914
vt 0.447315 0.520272
vt 0.443114 0.512077
vt 0.450577 0.526302
vt 0.452549 0.531048
vt 0.441612 0.524741
vt 0.435121 0.518189
vt 0.446036 0.529165
vt 0.448827 0.531964
vt 0.466156 0.549310
vt 0.459381 0.549183
vt 0.459096 0.542304
vt 0.466027 0.542529
vt 0.452567 0.548768
vt 0.452663 0.541914
vt 0.445611 0.548006
vt 0.446776 0.541178
vt 0.458723 0.535808
vt 0.465609 0.535724
vt 0.452839 0.535991
vt 0.447903 0.535686
vt 0.422926 0.544048
vt 0.424888 0.535025
vt 0.433500 0.537497
vt 0.430893 0.545485
vt 0.428946 0.526145
vt 0.437079 0.530392
vt 0.440685 0.539663
vt 0.438427 0.546886
vt 0.443153 0.533688
vt 0.627084 0.129600
vt 0.627212 0.122823
vt 0.634092 0.122539
vt 0.633866 0.129471
vt 0.627628 0.116009
vt 0.634482 0.116105
vt 0.628391 0.109053
vt 0.635218 0.110218
vt 0.640588 0.122165
vt 0.640672 0.129051
vt 0.640405 0.116281
vt 0.640710 0.111345
vt 0.646482 0.121476
vt 0.647612 0.128291
vt 0.645347 0.115991
vt 0.644431 0.112269
vt 0.632354 0.086370
vt 0.641373 0.088335
vt 0.638901 0.096945
vt 0.630915 0.094336
vt 0.650251 0.092393
vt 0.646004 0.100523
vt 0.658203 0.098566
vt 0.651653 0.105056
vt 0.636734 0.104128
vt 0.629512 0.101869
vt 0.642707 0.106596
vt 0.647230 0.109478
vt 0.670177 0.124424
vt 0.662269 0.125805
vt 0.659665 0.117934
vt 0.668290 0.115437
vt 0.654770 0.127180
vt 0.652564 0.120018
vt 0.656122 0.110757
vt 0.664314 0.106557
vt 0.650093 0.114019
vt 0.466028 0.122611
vt 0.490205 0.122642
vt 0.465609 0.115805
vt 0.489911 0.115836
vt 0.464849 0.108866
vt 0.489380 0.108894
vt 0.463740 0.101707
vt 0.488606 0.101731
vt 0.462367 0.094207
vt 0.487649 0.094226
vt 0.460988 0.086298
vt 0.486693 0.086309
vt 0.086298 0.478589
vt 0.250328 0.478590
vt 0.250328 0.485724
vt 0.086298 0.485723
vt 0.250328 0.492866
vt 0.086298 0.492865
vt 0.250328 0.500000
vt 0.086298 0.500000
vt 0.250328 0.507134
vt 0.086298 0.507134
vt 0.250328 0.514276
vt 0.086298 0.514276
vt 0.250328 0.521410
vt 0.086298 0.521410
vt 0.466019 0.710238
vt 0.466019 0.710238
vt 0.459237 0.710366
vt 0.459258 0.686189
vt 0.466040 0.686098
vt 0.466040 0.686098
vt 0.452431 0.710786
vt 0.452451 0.686484
vt 0.445492 0.711547
vt 0.445510 0.687016
vt 0.438333 0.712657
vt 0.438347 0.687791
vt 0.430834 0.714032
vt 0.430842 0.688750
vt 0.422926 0.715413
vt 0.422926 0.689708
vt 0.602945 0.549487
vt 0.603034 0.542710
vt 0.603325 0.535897
vt 0.603859 0.528944
vt 0.604646 0.521763
vt 0.605633 0.514235
vt 0.606649 0.506278
vt 0.633744 0.266477
vt 0.640556 0.266767
vt 0.647510 0.267300
vt 0.654690 0.268086
vt 0.662219 0.269071
vt 0.670177 0.270084
vt 0.250328 0.660835
vt 0.086298 0.660836
vt 0.250328 0.685440
vt 0.086298 0.685440
vt 0.630915 0.514255
vt 0.632353 0.506289
vt 0.629512 0.521787
vt 0.628391 0.528972
vt 0.627628 0.535928
vt 0.627211 0.542742
vt 0.627084 0.549518
vt 0.602945 0.549487
vt 0.466019 0.290319
vt 0.602828 0.686276
vt 0.662210 0.294353
vt 0.670177 0.295789
vt 0.654676 0.292952
vt 0.647492 0.291831
vt 0.640536 0.291070
vt 0.633722 0.290654
vt 0.627084 0.549518
vt 0.486272 0.549336
vt 0.486272 0.549336
vt 0.627084 0.549518
vt 0.466139 0.569426
vt 0.466143 0.564272
vt 0.466147 0.559487
vt 0.466144 0.563512
vt 0.466147 0.559424
vt 0.466150 0.556047
vt 0.466156 0.549310
vt 0.466156 0.549310
vt 0.466151 0.554499
vt 0.466150 0.556662
vt 0.466153 0.552687
vt 0.466156 0.549310
vt 0.466156 0.549304
vt 0.466156 0.549310
vt 0.466156 0.549309
vt 0.466156 0.549310
vt 0.466147 0.559368
vt 0.466143 0.564220
vt 0.466139 0.569426
vt 0.476214 0.549323
vt 0.476270 0.549323
vt 0.466156 0.549310
vt 0.481065 0.549329
vt 0.481118 0.549329
vt 0.466019 0.710238
vt 0.466019 0.710238
vt 0.466019 0.710238
vn 0.0000 -1.0000 0.0000
vn 0.0654 -0.9978 0.0000
vn 0.0000 -0.9978 -0.0654
vn 0.9978 -0.0654 0.0000
vn 0.9978 0.0654 0.0000
vn 0.0669 0.0669 -0.9955
vn 0.0678 0.2592 -0.9634
vn 0.2622 0.2634 -0.9283
vn 0.2594 0.0681 -0.9633
vn 0.0648 0.4989 -0.8642
vn 0.2502 0.4951 -0.8320
vn 0.0628 0.7058 -0.7056
vn 0.2410 0.6861 -0.6865
vn 0.4950 0.2510 -0.8318
vn 0.4987 0.0654 -0.8643
vn 0.4635 0.4637 -0.7551
vn 0.4392 0.6352 -0.6354
vn 0.6865 0.2410 -0.6861
vn 0.7056 0.0628 -0.7058
vn 0.6353 0.4392 -0.6352
vn 0.5773 0.5773 -0.5773
vn 0.0669 0.9955 -0.0669
vn 0.2592 0.9634 -0.0678
vn 0.2634 0.9283 -0.2622
vn 0.0681 0.9633 -0.2594
vn 0.4989 0.8642 -0.0648
vn 0.4951 0.8320 -0.2502
vn 0.7058 0.7056 -0.0628
vn 0.6861 0.6865 -0.2410
vn 0.2510 0.8318 -0.4950
vn 0.0654 0.8643 -0.4987
vn 0.4637 0.7551 -0.4635
vn 0.6352 0.6353 -0.4392
vn 0.9955 0.0669 -0.0669
vn 0.9634 0.0678 -0.2592
vn 0.9283 0.2622 -0.2634
vn 0.9633 0.2594 -0.0681
vn 0.8642 0.0648 -0.4989
vn 0.8320 0.2502 -0.4951
vn 0.8318 0.4950 -0.2510
vn 0.8643 0.4987 -0.0654
vn 0.7551 0.4635 -0.4637
vn 0.0669 -0.9955 -0.0669
vn 0.0678 -0.9634 -0.2592
vn 0.2622 -0.9283 -0.2634
vn 0.2594 -0.9633 -0.0681
vn 0.0648 -0.8642 -0.4989
vn 0.2502 -0.8320 -0.4951
vn 0.0628 -0.7056 -0.7058
vn 0.2410 -0.6865 -0.6861
vn 0.4950 -0.8318 -0.2510
vn 0.4987 -0.8643 -0.0654
vn 0.4635 -0.7551 -0.4637
vn 0.4392 -0.6353 -0.6352
vn 0.6865 -0.6861 -0.2410
vn 0.7056 -0.7058 -0.0628
vn 0.6353 -0.6352 -0.4392
vn 0.5773 -0.5773 -0.5773
vn 0.0669 -0.0669 -0.9955
vn 0.2592 -0.0678 -0.9634
vn 0.2634 -0.2622 -0.9283
vn 0.0681 -0.2594 -0.9633
vn 0.4989 -0.0648 -0.8642
vn 0.4951 -0.2502 -0.8320
vn 0.7058 -0.0628 -0.7056
vn 0.6861 -0.2410 -0.6865
vn 0.2510 -0.4950 -0.8318
vn 0.0654 -0.4987 -0.8643
vn 0.4637 -0.4635 -0.7551
vn 0.6352 -0.4392 -0.6353
vn 0.9955 -0.0669 -0.0669
vn 0.9634 -0.2592 -0.0678
vn 0.9283 -0.2634 -0.2622
vn 0.9633 -0.0681 -0.2594
vn 0.8642 -0.4989 -0.0648
vn 0.8320 -0.4951 -0.2502
vn 0.8318 -0.2510 -0.4950
vn 0.8643 -0.0654 -0.4987
vn 0.7551 -0.4637 -0.4635
vn 0.0000 -0.9659 -0.2588
vn 0.0000 -0.8660 -0.5000
vn 0.0000 -0.7071 -0.7071
vn 0.0000 -0.5000 -0.8660
vn 0.0000 -0.2588 -0.9659
vn 0.0000 -0.0654 -0.9978
vn 0.0871 0.9962 0.0000
vn 0.1305 0.9914 0.0000
vn 0.2588 0.9659 0.0000
vn 0.5000 0.8660 0.0000
vn 0.7071 0.7071 0.0000
vn 0.8660 0.5000 0.0000
vn 0.9659 0.2588 0.0000
vn 0.0000 0.9962 -0.0871
vn 0.0000 0.9659 -0.2588
vn 0.0000 0.8660 -0.5000
vn 0.0000 0.7071 -0.7071
vn 0.0000 0.5000 -0.8660
vn 0.0000 0.2588 -0.9659
vn 0.0000 0.0654 -0.9978
vn 0.2588 -0.9659 0.0000
vn 0.5000 -0.8660 0.0000
vn 0.7071 -0.7071 0.0000
vn 0.8660 -0.5000 0.0000
vn 0.9659 -0.2588 0.0000
vn 0.0000 0.9990 -0.0435
vn 0.0000 1.0000 0.0000
vn -0.0243 0.9994 0.0243
vn -0.0699 0.9975 -0.0012
vn -0.0579 0.9861 0.1553
vn -0.1827 0.9667 0.1792
vn -0.1555 0.9861 0.0576
vn -0.0872 0.9375 0.3369
vn -0.2743 0.8975 0.3452
vn -0.1581 0.8255 0.5418
vn -0.0003 0.5722 0.8201
vn -0.3280 0.8986 0.2912
vn -0.3415 0.9360 0.0846
vn -0.5150 0.6961 0.5002
vn 0.0797 0.2290 0.9702
vn -0.8106 0.5855 -0.0069
vn -0.4175 0.6275 0.6572
vn -0.9673 0.2325 -0.1009
vn -0.6968 0.2423 0.6751
vn 0.0100 0.8647 0.5022
vn 0.0052 0.9640 0.2656
vn 0.0012 0.9976 0.0698
vn -0.5022 0.8647 0.0029
vn 0.0000 -0.0000 1.0000
vn -0.2656 0.9640 -0.0052
usemtl Material.005
s 1
f 135/1/1 127/2/2 83/3/2 112/4/1
f 97/5/3 105/6/3 135/1/1 103/7/1
f 133/8/4 126/9/5 75/10/5 82/11/4
f 1/12/6 4/13/7 8/14/8 7/15/9
f 4/13/7 5/16/10 9/17/11 8/14/8
f 5/16/10 6/18/12 10/19/13 9/17/11
f 7/15/9 8/14/8 12/20/14 11/21/15
f 8/14/8 9/17/11 13/22/16 12/20/14
f 9/17/11 10/19/13 14/23/17 13/22/16
f 11/21/15 12/20/14 33/24/18 29/25/19
f 12/20/14 13/22/16 37/26/20 33/24/18
f 13/22/16 14/23/17 15/27/21 37/26/20
f 2/28/22 16/29/23 20/30/24 19/31/25
f 16/29/23 17/32/26 21/33/27 20/30/24
f 17/32/26 18/34/28 22/35/29 21/33/27
f 19/31/25 20/30/24 24/36/30 23/37/31
f 20/30/24 21/33/27 25/38/32 24/36/30
f 21/33/27 22/35/29 26/39/33 25/38/32
f 23/37/31 24/36/30 10/19/13 6/18/12
f 24/36/30 25/38/32 14/23/17 10/19/13
f 25/38/32 26/39/33 15/27/21 14/23/17
f 3/40/34 27/41/35 31/42/36 30/43/37
f 27/41/35 28/44/38 32/45/39 31/42/36
f 28/44/38 29/25/19 33/24/18 32/45/39
f 30/43/37 31/42/36 35/46/40 34/47/41
f 31/42/36 32/45/39 36/48/42 35/46/40
f 32/45/39 33/24/18 37/26/20 36/48/42
f 34/47/41 35/46/40 22/35/29 18/34/28
f 35/46/40 36/48/42 26/39/33 22/35/29
f 36/48/42 37/26/20 15/27/21 26/39/33
f 38/49/43 41/50/44 45/51/45 44/52/46
f 41/50/44 42/53/47 46/54/48 45/51/45
f 42/53/47 43/55/49 47/56/50 46/54/48
f 44/52/46 45/51/45 49/57/51 48/58/52
f 45/51/45 46/54/48 50/59/53 49/57/51
f 46/54/48 47/56/50 51/60/54 50/59/53
f 48/58/52 49/57/51 70/61/55 66/62/56
f 49/57/51 50/59/53 74/63/57 70/61/55
f 50/59/53 51/60/54 52/64/58 74/63/57
f 39/65/59 53/66/60 57/67/61 56/68/62
f 53/66/60 54/69/63 58/70/64 57/67/61
f 54/69/63 55/71/65 59/72/66 58/70/64
f 56/68/62 57/67/61 61/73/67 60/74/68
f 57/67/61 58/70/64 62/75/69 61/73/67
f 58/70/64 59/72/66 63/76/70 62/75/69
f 60/74/68 61/73/67 47/56/50 43/55/49
f 61/73/67 62/75/69 51/60/54 47/56/50
f 62/75/69 63/76/70 52/64/58 51/60/54
f 40/77/71 64/78/72 68/79/73 67/80/74
f 64/78/72 65/81/75 69/82/76 68/79/73
f 65/81/75 66/62/56 70/61/55 69/82/76
f 67/80/74 68/79/73 72/83/77 71/84/78
f 68/79/73 69/82/76 73/85/79 72/83/77
f 69/82/76 70/61/55 74/63/57 73/85/79
f 71/84/78 72/83/77 59/72/66 55/71/65
f 72/83/77 73/85/79 63/76/70 59/72/66
f 73/85/79 74/63/57 52/64/58 63/76/70
f 105/6/3 97/5/3 101/86/80 106/87/80
f 106/87/80 101/86/80 102/88/81 107/89/81
f 107/89/81 102/88/81 100/90/82 108/91/82
f 108/91/82 100/90/82 99/92/83 109/93/83
f 109/93/83 99/92/83 98/94/84 110/95/84
f 110/95/84 98/94/84 96/96/85 111/97/85
f 3/98/34 40/99/71 67/100/74 27/101/35
f 27/101/35 67/100/74 71/102/78 28/103/38
f 28/103/38 71/102/78 55/104/65 29/105/19
f 29/105/19 55/104/65 54/106/63 11/107/15
f 11/107/15 54/106/63 53/108/60 7/109/9
f 7/109/9 53/108/60 39/110/59 1/111/6
f 139/112/86 76/113/87 80/114/88 121/115/88 120/116/86 137/117/86
f 121/115/88 80/114/88 81/118/89 122/119/89
f 122/119/89 81/118/89 79/120/90 123/121/90
f 123/121/90 79/120/90 78/122/91 124/123/91
f 124/123/91 78/122/91 77/124/92 125/125/92
f 125/125/92 77/124/92 75/126/5 126/127/5
f 113/128/93 2/28/22 19/31/25 114/129/94
f 114/129/94 19/31/25 23/37/31 115/130/95
f 115/130/95 23/37/31 6/18/12 116/131/96
f 116/131/96 6/18/12 5/16/10 117/132/97
f 117/132/97 5/16/10 4/13/7 118/133/98
f 118/133/98 4/13/7 1/12/6 119/134/99
f 127/2/2 38/49/43 44/52/46 128/135/100
f 128/135/100 44/52/46 48/58/52 129/136/101
f 129/136/101 48/58/52 66/62/56 130/137/102
f 130/137/102 66/62/56 65/81/75 131/138/103
f 131/138/103 65/81/75 64/78/72 132/139/104
f 132/139/104 64/78/72 40/77/71 133/140/4
f 111/141/85 119/142/99 1/111/6 39/110/59
f 96/143/85 89/144/99 119/142/99 111/141/85
f 91/145/98 118/133/98 119/134/99 89/146/99
f 92/147/97 117/132/97 118/133/98 91/145/98
f 95/148/96 116/131/96 117/132/97 92/147/97
f 94/149/95 115/130/95 116/131/96 95/148/96
f 93/150/94 114/129/94 115/130/95 94/149/95
f 113/128/93 114/129/94 93/150/94 90/151/105 136/152/93
f 56/68/62 110/95/84 111/97/85 39/65/59
f 60/74/68 109/93/83 110/95/84 56/68/62
f 43/55/49 108/91/82 109/93/83 60/74/68
f 42/53/47 107/89/81 108/91/82 43/55/49
f 41/50/44 106/87/80 107/89/81 42/53/47
f 38/49/43 105/6/3 106/87/80 41/50/44
f 103/7/1 135/1/1 112/4/1 104/153/1
f 2/28/22 113/128/93 134/154/106 120/116/86
f 84/155/104 132/139/104 133/140/4 82/156/4
f 85/157/103 131/138/103 132/139/104 84/155/104
f 88/158/102 130/137/102 131/138/103 85/157/103
f 87/159/101 129/136/101 130/137/102 88/158/102
f 86/160/100 128/135/100 129/136/101 87/159/101
f 83/3/2 127/2/2 128/135/100 86/160/100
f 30/43/37 125/125/92 126/127/5 3/40/34
f 34/47/41 124/123/91 125/125/92 30/43/37
f 18/34/28 123/121/90 124/123/91 34/47/41
f 17/32/26 122/119/89 123/121/90 18/34/28
f 16/29/23 121/115/88 122/119/89 17/32/26
f 2/28/22 120/116/86 121/115/88 16/29/23
f 40/99/71 3/98/34 126/9/5 133/8/4
f 105/6/3 38/49/43 127/2/2 135/1/1
f 137/161/86 140/162/107 159/163/108 139/164/86
f 140/165/107 145/166/109 149/167/110 148/168/111
f 145/166/109 146/169/112 150/170/113 149/167/110
f 146/169/112 147/171/114 151/172/115 150/170/113
f 148/168/111 149/167/110 153/173/116 152/174/117
f 149/167/110 150/170/113 154/175/118 153/173/116
f 150/170/113 155/176/119 154/175/118
f 150/170/113 151/172/115 155/176/119
f 152/174/117 153/173/116 143/177/120 142/178/121
f 153/173/116 144/179/122 143/177/120
f 153/173/116 154/175/118 144/179/122
f 154/175/118 141/180/123 144/179/122
f 154/175/118 155/176/119 141/180/123
f 147/171/114 146/169/112 157/181/124
f 157/181/124 146/169/112 145/166/109 158/182/125
f 158/182/125 145/166/109 140/165/107 156/183/126
f 142/178/121 161/184/127 152/185/117
f 142/178/121 162/186/128 161/184/127
f 152/185/117 161/184/127 160/187/129 148/188/111
f 148/188/111 160/187/129 159/163/108 140/162/107
f 136/189/93 90/190/105 138/191/106 156/183/126 140/165/107
