# Blender v2.93.5 OBJ File: 'Beveled Cube Tiles.blend'
# www.blender.org
mtllib Single Side Beveled Cube.mtl
o Single_Side_Beveled_Cube_Cube.010
v -0.750000 2.000000 1.000000
v -1.000000 1.750000 1.000000
v -0.814682 1.991488 1.000000
v -0.875020 1.966495 1.000000
v -0.926777 1.926777 1.000000
v -0.991488 1.814682 1.000000
v -0.966495 1.875020 1.000000
v -0.750000 0.000000 1.000000
v -1.000000 0.250000 1.000000
v -0.814682 0.008512 1.000000
v -0.875020 0.033505 1.000000
v -0.991488 0.185318 1.000000
v -0.966495 0.124980 1.000000
v -0.926777 0.073223 1.000000
v -1.000000 1.750000 -1.000000
v -0.750000 2.000000 -1.000000
v -0.991487 1.814682 -1.000000
v -0.966495 1.875020 -1.000000
v -0.926777 1.926777 -1.000000
v -0.814682 1.991488 -1.000000
v -0.875020 1.966495 -1.000000
v -1.000000 0.250000 -1.000000
v -0.750000 0.000000 -1.000000
v -0.991487 0.185318 -1.000000
v -0.966495 0.124980 -1.000000
v -0.814682 0.008512 -1.000000
v -0.875020 0.033505 -1.000000
v -0.926777 0.073223 -1.000000
v 1.000000 1.750000 1.000000
v 0.750000 2.000000 1.000000
v 0.991487 1.814682 1.000000
v 0.966495 1.875020 1.000000
v 0.926777 1.926777 1.000000
v 0.814682 1.991488 1.000000
v 0.875020 1.966495 1.000000
v 1.000000 0.250000 1.000000
v 0.750000 0.000000 1.000000
v 0.991487 0.185318 1.000000
v 0.966495 0.124980 1.000000
v 0.814682 0.008512 1.000000
v 0.875020 0.033505 1.000000
v 0.926777 0.073223 1.000000
v 1.000000 1.750000 -1.000000
v 0.750000 2.000000 -1.000000
v 0.991488 1.814682 -1.000000
v 0.966495 1.875020 -1.000000
v 0.814682 1.991488 -1.000000
v 0.875020 1.966495 -1.000000
v 0.926777 1.926777 -1.000000
v 0.750000 0.000000 -1.000000
v 1.000000 0.250000 -1.000000
v 0.814682 0.008512 -1.000000
v 0.875020 0.033505 -1.000000
v 0.991488 0.185318 -1.000000
v 0.966495 0.124980 -1.000000
v 0.926777 0.073223 -1.000000
vt 0.635310 0.805433
vt 0.437707 0.805436
vt 0.437705 0.607833
vt 0.635307 0.607831
vt 0.386119 0.358645
vt 0.386118 0.556247
vt 0.188516 0.556247
vt 0.188516 0.358645
vt 0.635306 0.307059
vt 0.437703 0.307059
vt 0.437703 0.109456
vt 0.635306 0.109456
vt 0.890721 0.718452
vt 0.890722 0.520444
vt 0.899523 0.521253
vt 0.899477 0.717658
vt 0.908059 0.521839
vt 0.907999 0.717071
vt 0.916458 0.522051
vt 0.916393 0.716854
vt 0.924852 0.521834
vt 0.924792 0.717066
vt 0.933374 0.521247
vt 0.933329 0.717651
vt 0.942130 0.520453
vt 0.942130 0.718461
vt 0.385603 0.355198
vt 0.187595 0.355197
vt 0.188404 0.346396
vt 0.384809 0.346442
vt 0.188990 0.337860
vt 0.384222 0.337920
vt 0.189202 0.329461
vt 0.384005 0.329526
vt 0.188985 0.321067
vt 0.384217 0.321127
vt 0.188398 0.312545
vt 0.384803 0.312591
vt 0.187604 0.303789
vt 0.385612 0.303789
vt 0.189497 0.558221
vt 0.387505 0.558222
vt 0.386695 0.567023
vt 0.190291 0.566977
vt 0.386110 0.575560
vt 0.190878 0.575499
vt 0.385898 0.583958
vt 0.191095 0.583894
vt 0.386115 0.592353
vt 0.190883 0.592293
vt 0.386702 0.600874
vt 0.190297 0.600829
vt 0.387496 0.609630
vt 0.189488 0.609630
vt 0.723572 0.718452
vt 0.723573 0.520444
vt 0.732374 0.521253
vt 0.732328 0.717658
vt 0.740910 0.521839
vt 0.740850 0.717071
vt 0.749309 0.522051
vt 0.749244 0.716854
vt 0.757703 0.521834
vt 0.757643 0.717066
vt 0.766225 0.521247
vt 0.766180 0.717652
vt 0.774981 0.520453
vt 0.774981 0.718461
vn 0.9978 -0.0654 0.0000
vn 0.9978 0.0654 0.0000
vn -0.0654 0.9978 0.0000
vn 0.0654 0.9978 0.0000
vn -0.9978 -0.0654 0.0000
vn -0.9978 0.0654 0.0000
vn 0.1305 -0.9914 0.0000
vn 0.2588 -0.9659 0.0000
vn 0.5000 -0.8660 0.0000
vn 0.7071 -0.7071 0.0000
vn 0.8660 -0.5000 0.0000
vn 0.9659 -0.2588 0.0000
vn -0.2588 0.9659 0.0000
vn -0.5000 0.8660 0.0000
vn -0.7071 0.7071 0.0000
vn -0.8660 0.5000 0.0000
vn -0.9659 0.2588 0.0000
vn 0.2588 0.9659 0.0000
vn 0.5000 0.8660 0.0000
vn 0.7071 0.7071 0.0000
vn 0.8660 0.5000 0.0000
vn 0.9659 0.2588 0.0000
vn -0.1305 -0.9914 0.0000
vn -0.2588 -0.9659 0.0000
vn -0.5000 -0.8660 0.0000
vn -0.7071 -0.7071 0.0000
vn -0.8660 -0.5000 0.0000
vn -0.9659 -0.2588 0.0000
usemtl UV_Test_Pattern
s 1
f 51/1/1 43/2/2 29/3/2 36/4/1
f 1/5/3 30/6/4 44/7/4 16/8/3
f 9/9/5 2/10/6 15/11/6 22/12/5
f 37/13/7 50/14/7 52/15/8 40/16/8
f 40/16/8 52/15/8 53/17/9 41/18/9
f 41/18/9 53/17/9 56/19/10 42/20/10
f 42/20/10 56/19/10 55/21/11 39/22/11
f 39/22/11 55/21/11 54/23/12 38/24/12
f 38/24/12 54/23/12 51/25/1 36/26/1
f 1/27/3 16/28/3 20/29/13 3/30/13
f 3/30/13 20/29/13 21/31/14 4/32/14
f 4/32/14 21/31/14 19/33/15 5/34/15
f 5/34/15 19/33/15 18/35/16 7/36/16
f 7/36/16 18/35/16 17/37/17 6/38/17
f 6/38/17 17/37/17 15/39/6 2/40/6
f 44/41/4 30/42/4 34/43/18 47/44/18
f 47/44/18 34/43/18 35/45/19 48/46/19
f 48/46/19 35/45/19 33/47/20 49/48/20
f 49/48/20 33/47/20 32/49/21 46/50/21
f 46/50/21 32/49/21 31/51/22 45/52/22
f 45/52/22 31/51/22 29/53/2 43/54/2
f 23/55/23 8/56/23 10/57/24 26/58/24
f 26/58/24 10/57/24 11/59/25 27/60/25
f 27/60/25 11/59/25 14/61/26 28/62/26
f 28/62/26 14/61/26 13/63/27 25/64/27
f 25/64/27 13/63/27 12/65/28 24/66/28
f 24/66/28 12/65/28 9/67/5 22/68/5
