# Blender v2.93.5 OBJ File: 'Beveled Cube Tiles.blend'
# www.blender.org
mtllib Single End Beveled Cube.mtl
o Single_End_Beveled_Cube_Cube.011
v -0.750000 1.750000 1.000000
v -0.750000 2.000000 0.750000
v -1.000000 1.750000 0.750000
v -0.750000 1.814682 0.991487
v -0.750000 1.875020 0.966495
v -0.750000 1.926777 0.926777
v -0.814682 1.750000 0.991487
v -0.816718 1.817268 0.981352
v -0.815629 1.875404 0.956074
v -0.814287 1.920752 0.920912
v -0.875020 1.750000 0.966495
v -0.875471 1.816006 0.955913
v -0.869084 1.869142 0.934727
v -0.863846 1.907375 0.907392
v -0.894338 1.894338 0.894337
v -0.814682 1.991488 0.750000
v -0.875020 1.966495 0.750000
v -0.926777 1.926777 0.750000
v -0.750000 1.991488 0.814682
v -0.817268 1.981352 0.816718
v -0.875404 1.956075 0.815628
v -0.920753 1.920912 0.814287
v -0.750000 1.966495 0.875020
v -0.816006 1.955913 0.875471
v -0.869142 1.934727 0.869084
v -0.907375 1.907392 0.863845
v -0.991488 1.750000 0.814682
v -0.966495 1.750000 0.875020
v -0.926777 1.750000 0.926777
v -0.991488 1.814682 0.750000
v -0.981352 1.816718 0.817268
v -0.956075 1.815629 0.875404
v -0.920912 1.814287 0.920752
v -0.966495 1.875020 0.750000
v -0.955913 1.875471 0.816006
v -0.934727 1.869084 0.869142
v -0.907392 1.863846 0.907375
v -0.750000 0.000000 0.750000
v -0.750000 0.250000 1.000000
v -1.000000 0.250000 0.750000
v -0.750000 0.008512 0.814682
v -0.750000 0.033505 0.875020
v -0.750000 0.073223 0.926777
v -0.814682 0.008512 0.750000
v -0.816718 0.018648 0.817268
v -0.815629 0.043925 0.875404
v -0.814287 0.079088 0.920752
v -0.875020 0.033505 0.750000
v -0.875471 0.044087 0.816006
v -0.869084 0.065273 0.869142
v -0.863846 0.092608 0.907375
v -0.894338 0.105662 0.894337
v -0.814682 0.250000 0.991487
v -0.875020 0.250000 0.966495
v -0.926777 0.250000 0.926777
v -0.750000 0.185318 0.991487
v -0.817268 0.183282 0.981352
v -0.875404 0.184371 0.956074
v -0.920753 0.185713 0.920912
v -0.750000 0.124980 0.966495
v -0.816006 0.124529 0.955913
v -0.869142 0.130916 0.934727
v -0.907375 0.136154 0.907392
v -0.991488 0.185318 0.750000
v -0.966495 0.124980 0.750000
v -0.926777 0.073223 0.750000
v -0.991488 0.250000 0.814682
v -0.981352 0.182732 0.816718
v -0.956075 0.124596 0.815628
v -0.920912 0.079248 0.814287
v -0.966495 0.250000 0.875020
v -0.955913 0.183994 0.875471
v -0.934727 0.130858 0.869084
v -0.907392 0.092625 0.863845
v -1.000000 1.750000 -1.000000
v -0.750000 2.000000 -1.000000
v -0.991487 1.814682 -1.000000
v -0.966495 1.875020 -1.000000
v -0.926777 1.926777 -1.000000
v -0.814682 1.991488 -1.000000
v -0.875020 1.966495 -1.000000
v -1.000000 0.250000 -1.000000
v -0.750000 0.000000 -1.000000
v -0.991487 0.185318 -1.000000
v -0.966495 0.124980 -1.000000
v -0.814682 0.008512 -1.000000
v -0.875020 0.033505 -1.000000
v -0.926777 0.073223 -1.000000
v 0.750000 1.750000 1.000000
v 1.000000 1.750000 0.750000
v 0.750000 2.000000 0.750000
v 0.814682 1.750000 0.991488
v 0.875020 1.750000 0.966495
v 0.926777 1.750000 0.926777
v 0.750000 1.814682 0.991488
v 0.817268 1.816718 0.981352
v 0.875404 1.815629 0.956075
v 0.920752 1.814287 0.920912
v 0.750000 1.875020 0.966495
v 0.816006 1.875471 0.955913
v 0.869142 1.869084 0.934727
v 0.907375 1.863846 0.907392
v 0.894337 1.894338 0.894338
v 0.991487 1.814682 0.750000
v 0.966495 1.875020 0.750000
v 0.926777 1.926777 0.750000
v 0.991487 1.750000 0.814682
v 0.981352 1.817268 0.816718
v 0.956074 1.875404 0.815629
v 0.920912 1.920752 0.814287
v 0.966495 1.750000 0.875020
v 0.955913 1.816006 0.875471
v 0.934727 1.869142 0.869084
v 0.907392 1.907375 0.863846
v 0.750000 1.991488 0.814682
v 0.750000 1.966495 0.875020
v 0.750000 1.926777 0.926777
v 0.814682 1.991488 0.750000
v 0.816718 1.981352 0.817268
v 0.815628 1.956075 0.875404
v 0.814287 1.920912 0.920753
v 0.875020 1.966495 0.750000
v 0.875471 1.955913 0.816006
v 0.869084 1.934727 0.869142
v 0.863845 1.907392 0.907375
v 1.000000 0.250000 0.750000
v 0.750000 0.250000 1.000000
v 0.750000 0.000000 0.750000
v 0.991487 0.250000 0.814682
v 0.966495 0.250000 0.875020
v 0.926777 0.250000 0.926777
v 0.991487 0.185318 0.750000
v 0.981352 0.183282 0.817268
v 0.956074 0.184371 0.875404
v 0.920912 0.185713 0.920753
v 0.966495 0.124980 0.750000
v 0.955913 0.124529 0.816006
v 0.934727 0.130916 0.869142
v 0.907392 0.136154 0.907375
v 0.894337 0.105662 0.894338
v 0.750000 0.185318 0.991488
v 0.750000 0.124980 0.966495
v 0.750000 0.073223 0.926777
v 0.814682 0.250000 0.991488
v 0.816718 0.182732 0.981352
v 0.815628 0.124596 0.956075
v 0.814287 0.079248 0.920912
v 0.875020 0.250000 0.966495
v 0.875471 0.183994 0.955913
v 0.869084 0.130858 0.934727
v 0.863845 0.092625 0.907392
v 0.814682 0.008512 0.750000
v 0.875020 0.033505 0.750000
v 0.926777 0.073223 0.750000
v 0.750000 0.008512 0.814682
v 0.817268 0.018648 0.816718
v 0.875404 0.043925 0.815629
v 0.920752 0.079088 0.814287
v 0.750000 0.033505 0.875020
v 0.816006 0.044087 0.875471
v 0.869142 0.065273 0.869084
v 0.907375 0.092608 0.863846
v 1.000000 1.750000 -1.000000
v 0.750000 2.000000 -1.000000
v 0.991488 1.814682 -1.000000
v 0.966495 1.875020 -1.000000
v 0.814682 1.991488 -1.000000
v 0.875020 1.966495 -1.000000
v 0.926777 1.926777 -1.000000
v 0.750000 0.000000 -1.000000
v 1.000000 0.250000 -1.000000
v 0.814682 0.008512 -1.000000
v 0.875020 0.033505 -1.000000
v 0.991488 0.185318 -1.000000
v 0.966495 0.124980 -1.000000
v 0.926777 0.073223 -1.000000
vt 0.635310 0.805433
vt 0.437707 0.805436
vt 0.437705 0.607833
vt 0.635307 0.607831
vt 0.386119 0.358645
vt 0.386118 0.556247
vt 0.188516 0.556247
vt 0.188516 0.358645
vt 0.635306 0.307059
vt 0.437703 0.307059
vt 0.437703 0.109456
vt 0.635306 0.109456
vt 0.435218 0.329571
vt 0.428479 0.336180
vt 0.421574 0.329607
vt 0.428496 0.322945
vt 0.421116 0.342288
vt 0.415013 0.335198
vt 0.412960 0.347526
vt 0.408602 0.339424
vt 0.414981 0.323923
vt 0.421151 0.316815
vt 0.409899 0.329545
vt 0.405296 0.333447
vt 0.408596 0.319636
vt 0.413005 0.311552
vt 0.405301 0.325621
vt 0.403078 0.329533
vt 0.385603 0.355198
vt 0.384809 0.346442
vt 0.393528 0.344733
vt 0.394865 0.353979
vt 0.384222 0.337920
vt 0.392529 0.336672
vt 0.384005 0.329526
vt 0.392109 0.329541
vt 0.401634 0.342445
vt 0.404086 0.351442
vt 0.399629 0.335316
vt 0.398634 0.329532
vt 0.385612 0.303789
vt 0.394900 0.305038
vt 0.393625 0.314249
vt 0.384803 0.312591
vt 0.404133 0.307608
vt 0.401657 0.316558
vt 0.392580 0.322400
vt 0.384217 0.321127
vt 0.399646 0.323739
vt 0.723573 0.520444
vt 0.724821 0.511156
vt 0.734033 0.512431
vt 0.732374 0.521253
vt 0.727392 0.501923
vt 0.736341 0.504399
vt 0.731335 0.493052
vt 0.739419 0.497460
vt 0.742183 0.513476
vt 0.740910 0.521839
vt 0.743522 0.506410
vt 0.745404 0.500756
vt 0.749324 0.513947
vt 0.749309 0.522051
vt 0.749315 0.507422
vt 0.749316 0.502979
vt 0.749354 0.470839
vt 0.755962 0.477578
vt 0.749390 0.484483
vt 0.742728 0.477561
vt 0.762071 0.484941
vt 0.754981 0.491044
vt 0.767309 0.493096
vt 0.759206 0.497454
vt 0.743706 0.491076
vt 0.736598 0.484906
vt 0.749328 0.496157
vt 0.753230 0.500760
vt 0.774981 0.520453
vt 0.766225 0.521247
vt 0.764516 0.512528
vt 0.773761 0.511191
vt 0.757703 0.521834
vt 0.756455 0.513528
vt 0.762227 0.504422
vt 0.771225 0.501970
vt 0.755099 0.506427
vt 0.437110 0.584003
vt 0.430371 0.590612
vt 0.423466 0.584039
vt 0.430388 0.577378
vt 0.423008 0.596720
vt 0.416905 0.589631
vt 0.414853 0.601958
vt 0.410494 0.593856
vt 0.416873 0.578355
vt 0.423043 0.571247
vt 0.411791 0.583977
vt 0.407188 0.587880
vt 0.410489 0.574068
vt 0.414897 0.565985
vt 0.407193 0.580054
vt 0.404970 0.583966
vt 0.387496 0.609630
vt 0.386702 0.600874
vt 0.395420 0.599165
vt 0.396757 0.608411
vt 0.386115 0.592353
vt 0.394421 0.591104
vt 0.385898 0.583958
vt 0.394002 0.583974
vt 0.403527 0.596877
vt 0.405979 0.605874
vt 0.401522 0.589749
vt 0.400527 0.583964
vt 0.387505 0.558222
vt 0.396793 0.559471
vt 0.395518 0.568682
vt 0.386695 0.567023
vt 0.406025 0.562041
vt 0.403550 0.570990
vt 0.394472 0.576833
vt 0.386110 0.575560
vt 0.401538 0.578171
vt 0.942130 0.718461
vt 0.940882 0.727749
vt 0.931670 0.726474
vt 0.933329 0.717651
vt 0.938311 0.736982
vt 0.929362 0.734506
vt 0.934367 0.745854
vt 0.926284 0.741445
vt 0.923519 0.725429
vt 0.924792 0.717066
vt 0.922181 0.732495
vt 0.920298 0.738149
vt 0.916378 0.724958
vt 0.916393 0.716854
vt 0.916388 0.731483
vt 0.916386 0.735927
vt 0.916348 0.768067
vt 0.909740 0.761328
vt 0.916312 0.754423
vt 0.922974 0.761345
vt 0.903631 0.753965
vt 0.910721 0.747861
vt 0.898393 0.745809
vt 0.906496 0.741451
vt 0.921997 0.747829
vt 0.929105 0.754000
vt 0.916374 0.742748
vt 0.912472 0.738145
vt 0.890721 0.718452
vt 0.899477 0.717658
vt 0.901186 0.726377
vt 0.891941 0.727714
vt 0.907999 0.717071
vt 0.909248 0.725377
vt 0.903475 0.734483
vt 0.894477 0.736935
vt 0.910603 0.732478
vt 0.890722 0.520444
vt 0.899523 0.521253
vt 0.908059 0.521839
vt 0.916458 0.522051
vt 0.924852 0.521834
vt 0.933374 0.521247
vt 0.942130 0.520453
vt 0.686892 0.358643
vt 0.686892 0.556246
vt 0.678297 0.556246
vt 0.678297 0.358643
vt 0.669694 0.556246
vt 0.669693 0.358643
vt 0.661099 0.556246
vt 0.661099 0.358643
vt 0.652505 0.556246
vt 0.652504 0.358643
vt 0.643901 0.556246
vt 0.643901 0.358643
vt 0.635307 0.556246
vt 0.635306 0.358643
vt 0.635306 0.315653
vt 0.437703 0.315653
vt 0.635306 0.324257
vt 0.437703 0.324257
vt 0.635306 0.332851
vt 0.437703 0.332851
vt 0.635306 0.341445
vt 0.437703 0.341446
vt 0.635306 0.350049
vt 0.437703 0.350050
vt 0.437703 0.358644
vt 0.437704 0.556247
vt 0.635307 0.564840
vt 0.437704 0.564842
vt 0.635307 0.573444
vt 0.437704 0.573445
vt 0.635307 0.582038
vt 0.437705 0.582040
vt 0.635307 0.590633
vt 0.437705 0.590635
vt 0.635307 0.599236
vt 0.437705 0.599238
vt 0.187595 0.355197
vt 0.188404 0.346396
vt 0.188990 0.337860
vt 0.189202 0.329461
vt 0.188985 0.321067
vt 0.188398 0.312545
vt 0.187604 0.303789
vt 0.189497 0.558221
vt 0.190291 0.566977
vt 0.190878 0.575499
vt 0.191095 0.583894
vt 0.190883 0.592293
vt 0.190297 0.600829
vt 0.189488 0.609630
vt 0.394713 0.358645
vt 0.394713 0.556247
vt 0.403316 0.358645
vt 0.403317 0.556247
vt 0.411911 0.358645
vt 0.411911 0.556247
vt 0.420505 0.358645
vt 0.420506 0.556247
vt 0.429109 0.358644
vt 0.429110 0.556247
vt 0.723572 0.718452
vt 0.732328 0.717658
vt 0.740850 0.717071
vt 0.749244 0.716854
vt 0.757643 0.717066
vt 0.766180 0.717652
vt 0.774981 0.718461
vn 0.9978 -0.0654 0.0000
vn 0.9978 0.0654 0.0000
vn 0.9955 0.0669 0.0669
vn 0.9955 -0.0669 0.0669
vn -0.0669 0.9955 0.0669
vn 0.0669 0.9955 0.0669
vn 0.0654 0.9978 0.0000
vn -0.0654 0.9978 0.0000
vn -0.9955 -0.0669 0.0669
vn -0.9955 0.0669 0.0669
vn -0.9978 0.0654 0.0000
vn -0.9978 -0.0654 0.0000
vn -0.0669 0.0669 0.9955
vn -0.0678 0.2592 0.9634
vn -0.2622 0.2634 0.9283
vn -0.2594 0.0681 0.9633
vn -0.0648 0.4989 0.8642
vn -0.2502 0.4951 0.8320
vn -0.0628 0.7058 0.7056
vn -0.2410 0.6861 0.6865
vn -0.4950 0.2510 0.8318
vn -0.4987 0.0654 0.8643
vn -0.4635 0.4637 0.7551
vn -0.4392 0.6352 0.6354
vn -0.6865 0.2410 0.6861
vn -0.7056 0.0628 0.7058
vn -0.6353 0.4392 0.6352
vn -0.5773 0.5773 0.5773
vn -0.2592 0.9634 0.0678
vn -0.2634 0.9283 0.2622
vn -0.0681 0.9633 0.2594
vn -0.4989 0.8642 0.0648
vn -0.4951 0.8320 0.2502
vn -0.7058 0.7056 0.0628
vn -0.6861 0.6865 0.2410
vn -0.2510 0.8318 0.4950
vn -0.0654 0.8643 0.4987
vn -0.4637 0.7551 0.4635
vn -0.6352 0.6353 0.4392
vn -0.9634 0.0678 0.2592
vn -0.9283 0.2622 0.2634
vn -0.9633 0.2594 0.0681
vn -0.8642 0.0648 0.4989
vn -0.8320 0.2502 0.4951
vn -0.8318 0.4950 0.2510
vn -0.8643 0.4987 0.0654
vn -0.7551 0.4635 0.4637
vn -0.0892 -0.9920 0.0892
vn -0.0678 -0.9634 0.2592
vn -0.2622 -0.9283 0.2634
vn -0.2594 -0.9633 0.0681
vn -0.0648 -0.8642 0.4989
vn -0.2502 -0.8320 0.4951
vn -0.0628 -0.7056 0.7058
vn -0.2410 -0.6865 0.6861
vn -0.4950 -0.8318 0.2510
vn -0.4987 -0.8643 0.0654
vn -0.4635 -0.7551 0.4637
vn -0.4392 -0.6353 0.6352
vn -0.6865 -0.6861 0.2410
vn -0.7056 -0.7058 0.0628
vn -0.6353 -0.6352 0.4392
vn -0.5773 -0.5773 0.5773
vn -0.0669 -0.0669 0.9955
vn -0.2592 -0.0678 0.9634
vn -0.2634 -0.2622 0.9283
vn -0.0681 -0.2594 0.9633
vn -0.4989 -0.0648 0.8642
vn -0.4951 -0.2502 0.8320
vn -0.7058 -0.0628 0.7056
vn -0.6861 -0.2410 0.6865
vn -0.2510 -0.4950 0.8318
vn -0.0654 -0.4987 0.8643
vn -0.4637 -0.4635 0.7551
vn -0.6352 -0.4392 0.6353
vn -0.9634 -0.2592 0.0678
vn -0.9283 -0.2634 0.2622
vn -0.9633 -0.0681 0.2594
vn -0.8642 -0.4989 0.0648
vn -0.8320 -0.4951 0.2502
vn -0.8318 -0.2510 0.4950
vn -0.8643 -0.0654 0.4987
vn -0.7551 -0.4637 0.4635
vn 0.0669 0.0669 0.9955
vn 0.2592 0.0678 0.9634
vn 0.2634 0.2622 0.9283
vn 0.0681 0.2594 0.9633
vn 0.4989 0.0648 0.8642
vn 0.4951 0.2502 0.8320
vn 0.7058 0.0628 0.7056
vn 0.6861 0.2410 0.6865
vn 0.2510 0.4950 0.8318
vn 0.0654 0.4987 0.8643
vn 0.4637 0.4635 0.7551
vn 0.6352 0.4392 0.6353
vn 0.2410 0.6865 0.6861
vn 0.0628 0.7056 0.7058
vn 0.4392 0.6353 0.6352
vn 0.5773 0.5773 0.5773
vn 0.9634 0.2592 0.0678
vn 0.9283 0.2634 0.2622
vn 0.9633 0.0681 0.2594
vn 0.8642 0.4989 0.0648
vn 0.8320 0.4951 0.2502
vn 0.7056 0.7058 0.0628
vn 0.6865 0.6861 0.2410
vn 0.8318 0.2510 0.4950
vn 0.8643 0.0654 0.4987
vn 0.7551 0.4637 0.4635
vn 0.6353 0.6352 0.4392
vn 0.0678 0.9634 0.2592
vn 0.2622 0.9283 0.2634
vn 0.2594 0.9633 0.0681
vn 0.0648 0.8642 0.4989
vn 0.2502 0.8320 0.4951
vn 0.4950 0.8318 0.2510
vn 0.4987 0.8643 0.0654
vn 0.4635 0.7551 0.4637
vn 0.9634 -0.0678 0.2592
vn 0.9283 -0.2622 0.2634
vn 0.9633 -0.2594 0.0681
vn 0.8642 -0.0648 0.4989
vn 0.8320 -0.2502 0.4951
vn 0.7056 -0.0628 0.7058
vn 0.6865 -0.2410 0.6861
vn 0.8318 -0.4950 0.2510
vn 0.8643 -0.4987 0.0654
vn 0.7551 -0.4635 0.4637
vn 0.6353 -0.4392 0.6352
vn 0.6861 -0.6865 0.2410
vn 0.7058 -0.7056 0.0628
vn 0.6352 -0.6353 0.4392
vn 0.5773 -0.5773 0.5773
vn 0.0669 -0.0669 0.9955
vn 0.0678 -0.2592 0.9634
vn 0.2622 -0.2634 0.9283
vn 0.2594 -0.0681 0.9633
vn 0.0648 -0.4989 0.8642
vn 0.2502 -0.4951 0.8320
vn 0.0628 -0.7058 0.7056
vn 0.2410 -0.6861 0.6865
vn 0.4950 -0.2510 0.8318
vn 0.4987 -0.0654 0.8643
vn 0.4635 -0.4637 0.7551
vn 0.4392 -0.6352 0.6353
vn 0.0892 -0.9920 0.0892
vn 0.2592 -0.9634 0.0678
vn 0.2634 -0.9283 0.2622
vn 0.0681 -0.9633 0.2594
vn 0.4989 -0.8642 0.0648
vn 0.4951 -0.8320 0.2502
vn 0.2510 -0.8318 0.4950
vn 0.0654 -0.8643 0.4987
vn 0.4637 -0.7551 0.4635
vn 0.1305 -0.9914 0.0000
vn 0.2588 -0.9659 0.0000
vn 0.5000 -0.8660 0.0000
vn 0.7071 -0.7071 0.0000
vn 0.8660 -0.5000 0.0000
vn 0.9659 -0.2588 0.0000
vn -0.2588 0.9659 0.0000
vn -0.5000 0.8660 0.0000
vn -0.7071 0.7071 0.0000
vn -0.8660 0.5000 0.0000
vn -0.9659 0.2588 0.0000
vn 0.2588 0.9659 0.0000
vn 0.5000 0.8660 0.0000
vn 0.7071 0.7071 0.0000
vn 0.8660 0.5000 0.0000
vn 0.9659 0.2588 0.0000
vn -0.1305 -0.9914 0.0000
vn -0.2588 -0.9659 0.0000
vn -0.5000 -0.8660 0.0000
vn -0.7071 -0.7071 0.0000
vn -0.8660 -0.5000 0.0000
vn -0.9659 -0.2588 0.0000
usemtl UV_Test_Pattern
s 1
f 171/1/1 163/2/2 90/3/3 126/4/4
f 2/5/5 91/6/6 164/7/7 76/8/8
f 40/9/9 3/10/10 75/11/11 82/12/12
f 1/13/13 4/14/14 8/15/15 7/16/16
f 4/14/14 5/17/17 9/18/18 8/15/15
f 5/17/17 6/19/19 10/20/20 9/18/18
f 7/16/16 8/15/15 12/21/21 11/22/22
f 8/15/15 9/18/18 13/23/23 12/21/21
f 9/18/18 10/20/20 14/24/24 13/23/23
f 11/22/22 12/21/21 33/25/25 29/26/26
f 12/21/21 13/23/23 37/27/27 33/25/25
f 13/23/23 14/24/24 15/28/28 37/27/27
f 2/29/5 16/30/29 20/31/30 19/32/31
f 16/30/29 17/33/32 21/34/33 20/31/30
f 17/33/32 18/35/34 22/36/35 21/34/33
f 19/32/31 20/31/30 24/37/36 23/38/37
f 20/31/30 21/34/33 25/39/38 24/37/36
f 21/34/33 22/36/35 26/40/39 25/39/38
f 23/38/37 24/37/36 10/20/20 6/19/19
f 24/37/36 25/39/38 14/24/24 10/20/20
f 25/39/38 26/40/39 15/28/28 14/24/24
f 3/41/10 27/42/40 31/43/41 30/44/42
f 27/42/40 28/45/43 32/46/44 31/43/41
f 28/45/43 29/26/26 33/25/25 32/46/44
f 30/44/42 31/43/41 35/47/45 34/48/46
f 31/43/41 32/46/44 36/49/47 35/47/45
f 32/46/44 33/25/25 37/27/27 36/49/47
f 34/48/46 35/47/45 22/36/35 18/35/34
f 35/47/45 36/49/47 26/40/39 22/36/35
f 36/49/47 37/27/27 15/28/28 26/40/39
f 38/50/48 41/51/49 45/52/50 44/53/51
f 41/51/49 42/54/52 46/55/53 45/52/50
f 42/54/52 43/56/54 47/57/55 46/55/53
f 44/53/51 45/52/50 49/58/56 48/59/57
f 45/52/50 46/55/53 50/60/58 49/58/56
f 46/55/53 47/57/55 51/61/59 50/60/58
f 48/59/57 49/58/56 70/62/60 66/63/61
f 49/58/56 50/60/58 74/64/62 70/62/60
f 50/60/58 51/61/59 52/65/63 74/64/62
f 39/66/64 53/67/65 57/68/66 56/69/67
f 53/67/65 54/70/68 58/71/69 57/68/66
f 54/70/68 55/72/70 59/73/71 58/71/69
f 56/69/67 57/68/66 61/74/72 60/75/73
f 57/68/66 58/71/69 62/76/74 61/74/72
f 58/71/69 59/73/71 63/77/75 62/76/74
f 60/75/73 61/74/72 47/57/55 43/56/54
f 61/74/72 62/76/74 51/61/59 47/57/55
f 62/76/74 63/77/75 52/65/63 51/61/59
f 40/78/9 64/79/76 68/80/77 67/81/78
f 64/79/76 65/82/79 69/83/80 68/80/77
f 65/82/79 66/63/61 70/62/60 69/83/80
f 67/81/78 68/80/77 72/84/81 71/85/82
f 68/80/77 69/83/80 73/86/83 72/84/81
f 69/83/80 70/62/60 74/64/62 73/86/83
f 71/85/82 72/84/81 59/73/71 55/72/70
f 72/84/81 73/86/83 63/77/75 59/73/71
f 73/86/83 74/64/62 52/65/63 63/77/75
f 89/87/84 92/88/85 96/89/86 95/90/87
f 92/88/85 93/91/88 97/92/89 96/89/86
f 93/91/88 94/93/90 98/94/91 97/92/89
f 95/90/87 96/89/86 100/95/92 99/96/93
f 96/89/86 97/92/89 101/97/94 100/95/92
f 97/92/89 98/94/91 102/98/95 101/97/94
f 99/96/93 100/95/92 121/99/96 117/100/97
f 100/95/92 101/97/94 125/101/98 121/99/96
f 101/97/94 102/98/95 103/102/99 125/101/98
f 90/103/3 104/104/100 108/105/101 107/106/102
f 104/104/100 105/107/103 109/108/104 108/105/101
f 105/107/103 106/109/105 110/110/106 109/108/104
f 107/106/102 108/105/101 112/111/107 111/112/108
f 108/105/101 109/108/104 113/113/109 112/111/107
f 109/108/104 110/110/106 114/114/110 113/113/109
f 111/112/108 112/111/107 98/94/91 94/93/90
f 112/111/107 113/113/109 102/98/95 98/94/91
f 113/113/109 114/114/110 103/102/99 102/98/95
f 91/115/6 115/116/111 119/117/112 118/118/113
f 115/116/111 116/119/114 120/120/115 119/117/112
f 116/119/114 117/100/97 121/99/96 120/120/115
f 118/118/113 119/117/112 123/121/116 122/122/117
f 119/117/112 120/120/115 124/123/118 123/121/116
f 120/120/115 121/99/96 125/101/98 124/123/118
f 122/122/117 123/121/116 110/110/106 106/109/105
f 123/121/116 124/123/118 114/114/110 110/110/106
f 124/123/118 125/101/98 103/102/99 114/114/110
f 126/124/4 129/125/119 133/126/120 132/127/121
f 129/125/119 130/128/122 134/129/123 133/126/120
f 130/128/122 131/130/124 135/131/125 134/129/123
f 132/127/121 133/126/120 137/132/126 136/133/127
f 133/126/120 134/129/123 138/134/128 137/132/126
f 134/129/123 135/131/125 139/135/129 138/134/128
f 136/133/127 137/132/126 158/136/130 154/137/131
f 137/132/126 138/134/128 162/138/132 158/136/130
f 138/134/128 139/135/129 140/139/133 162/138/132
f 127/140/134 141/141/135 145/142/136 144/143/137
f 141/141/135 142/144/138 146/145/139 145/142/136
f 142/144/138 143/146/140 147/147/141 146/145/139
f 144/143/137 145/142/136 149/148/142 148/149/143
f 145/142/136 146/145/139 150/150/144 149/148/142
f 146/145/139 147/147/141 151/151/145 150/150/144
f 148/149/143 149/148/142 135/131/125 131/130/124
f 149/148/142 150/150/144 139/135/129 135/131/125
f 150/150/144 151/151/145 140/139/133 139/135/129
f 128/152/146 152/153/147 156/154/148 155/155/149
f 152/153/147 153/156/150 157/157/151 156/154/148
f 153/156/150 154/137/131 158/136/130 157/157/151
f 155/155/149 156/154/148 160/158/152 159/159/153
f 156/154/148 157/157/151 161/160/154 160/158/152
f 157/157/151 158/136/130 162/138/132 161/160/154
f 159/159/153 160/158/152 147/147/141 143/146/140
f 160/158/152 161/160/154 151/151/145 147/147/141
f 161/160/154 162/138/132 140/139/133 151/151/145
f 128/152/146 170/161/155 172/162/156 152/153/147
f 152/153/147 172/162/156 173/163/157 153/156/150
f 153/156/150 173/163/157 176/164/158 154/137/131
f 154/137/131 176/164/158 175/165/159 136/133/127
f 136/133/127 175/165/159 174/166/160 132/127/121
f 132/127/121 174/166/160 171/167/1 126/124/4
f 38/168/48 128/169/146 155/170/149 41/171/49
f 41/171/49 155/170/149 159/172/153 42/173/52
f 42/173/52 159/172/153 143/174/140 43/175/54
f 43/175/54 143/174/140 142/176/138 60/177/73
f 60/177/73 142/176/138 141/178/135 56/179/67
f 56/179/67 141/178/135 127/180/134 39/181/64
f 3/10/10 40/9/9 67/182/78 27/183/40
f 27/183/40 67/182/78 71/184/82 28/185/43
f 28/185/43 71/184/82 55/186/70 29/187/26
f 29/187/26 55/186/70 54/188/68 11/189/22
f 11/189/22 54/188/68 53/190/65 7/191/16
f 7/191/16 53/190/65 39/181/64 1/192/13
f 89/193/84 127/180/134 144/194/137 92/195/85
f 92/195/85 144/194/137 148/196/143 93/197/88
f 93/197/88 148/196/143 131/198/124 94/199/90
f 94/199/90 131/198/124 130/200/122 111/201/108
f 111/201/108 130/200/122 129/202/119 107/203/102
f 107/203/102 129/202/119 126/4/4 90/3/3
f 2/29/5 76/204/8 80/205/161 16/30/29
f 16/30/29 80/205/161 81/206/162 17/33/32
f 17/33/32 81/206/162 79/207/163 18/35/34
f 18/35/34 79/207/163 78/208/164 34/48/46
f 34/48/46 78/208/164 77/209/165 30/44/42
f 30/44/42 77/209/165 75/210/11 3/41/10
f 164/211/7 91/115/6 118/118/113 167/212/166
f 167/212/166 118/118/113 122/122/117 168/213/167
f 168/213/167 122/122/117 106/109/105 169/214/168
f 169/214/168 106/109/105 105/107/103 166/215/169
f 166/215/169 105/107/103 104/104/100 165/216/170
f 165/216/170 104/104/100 90/103/3 163/217/2
f 91/6/6 2/5/5 19/218/31 115/219/111
f 115/219/111 19/218/31 23/220/37 116/221/114
f 116/221/114 23/220/37 6/222/19 117/223/97
f 117/223/97 6/222/19 5/224/17 99/225/93
f 99/225/93 5/224/17 4/226/14 95/227/87
f 95/227/87 4/226/14 1/192/13 89/193/84
f 83/228/171 38/50/48 44/53/51 86/229/172
f 86/229/172 44/53/51 48/59/57 87/230/173
f 87/230/173 48/59/57 66/63/61 88/231/174
f 88/231/174 66/63/61 65/82/79 85/232/175
f 85/232/175 65/82/79 64/79/76 84/233/176
f 84/233/176 64/79/76 40/78/9 82/234/12
f 127/180/134 89/193/84 1/192/13 39/181/64
