# Blender v2.93.5 OBJ File: 'Beveled Cube Tiles.blend'
# www.blender.org
mtllib Subdivided Plane.mtl
o Plane.018_Plane.048
v -1.000000 0.000000 1.000000
v 1.000000 0.000000 1.000000
v -1.000000 0.000000 -1.000000
v 1.000000 0.000000 -1.000000
v -1.000000 0.000000 -0.500000
v -1.000000 0.000000 0.000000
v -1.000000 0.000000 0.500000
v -0.500000 0.000000 1.000000
v 0.000000 0.000000 1.000000
v 0.500000 0.000000 1.000000
v 1.000000 0.000000 0.500000
v 1.000000 0.000000 0.000000
v 1.000000 0.000000 -0.500000
v 0.500000 0.000000 -1.000000
v 0.000000 0.000000 -1.000000
v -0.500000 0.000000 -1.000000
v -0.500000 0.000000 0.500000
v 0.000000 0.000000 0.500000
v 0.500000 0.000000 0.500000
v -0.500000 0.000000 0.000000
v 0.000000 0.000000 0.000000
v 0.500000 0.000000 0.000000
v -0.500000 0.000000 -0.500000
v 0.000000 0.000000 -0.500000
v 0.500000 0.000000 -0.500000
vt 0.250000 0.250000
vt 0.500000 0.250000
vt 0.500000 0.500000
vt 0.250000 0.500000
vt 0.750000 0.250000
vt 0.750000 0.500000
vt 0.500000 0.750000
vt 0.250000 0.750000
vt 0.750000 0.750000
vt 0.000000 0.000000
vt 0.250000 0.000000
vt 0.000000 0.250000
vt 0.500000 0.000000
vt 0.750000 0.000000
vt 1.000000 0.000000
vt 1.000000 0.250000
vt 1.000000 0.500000
vt 1.000000 0.750000
vt 1.000000 1.000000
vt 0.750000 1.000000
vt 0.500000 1.000000
vt 0.250000 1.000000
vt 0.000000 0.750000
vt 0.000000 1.000000
vt 0.000000 0.500000
vn 0.0000 1.0000 0.0000
usemtl None
s off
f 17/1/1 18/2/1 21/3/1 20/4/1
f 18/2/1 19/5/1 22/6/1 21/3/1
f 20/4/1 21/3/1 24/7/1 23/8/1
f 21/3/1 22/6/1 25/9/1 24/7/1
f 1/10/1 8/11/1 17/1/1 7/12/1
f 8/11/1 9/13/1 18/2/1 17/1/1
f 9/13/1 10/14/1 19/5/1 18/2/1
f 10/14/1 2/15/1 11/16/1 19/5/1
f 19/5/1 11/16/1 12/17/1 22/6/1
f 22/6/1 12/17/1 13/18/1 25/9/1
f 25/9/1 13/18/1 4/19/1 14/20/1
f 24/7/1 25/9/1 14/20/1 15/21/1
f 23/8/1 24/7/1 15/21/1 16/22/1
f 5/23/1 23/8/1 16/22/1 3/24/1
f 6/25/1 20/4/1 23/8/1 5/23/1
f 7/12/1 17/1/1 20/4/1 6/25/1
